<svg width="60" height="60" viewBox="0 0 60 60" fill="none" xmlns="http://www.w3.org/2000/svg">
<path d="M30 0C13.4287 0 0 13.4287 0 30C0 46.5713 13.4287 60 30 60C46.5713 60 60 46.5713 60 30C60 13.4287 46.5713 0 30 0ZM22.5 45C14.205 45 7.5 38.2988 7.5 30C7.5 21.7012 14.205 15 22.5 15C26.5537 15 29.94 16.4775 32.5537 18.9262L28.4737 22.8413C27.36 21.7763 25.4138 20.5312 22.4963 20.5312C17.3738 20.5312 13.1925 24.7725 13.1925 30C13.1925 35.2275 17.3775 39.4687 22.4963 39.4687C28.4363 39.4687 30.6637 35.205 31.005 33H22.4963V27.855H36.6638C36.7913 28.605 36.9 29.355 36.9 30.3412C36.9 38.9175 31.1588 45 22.4963 45H22.5ZM48.75 30V33.75H45V30H41.25V26.25H45V22.5H48.75V26.25H52.5V30H48.75Z" fill="#DE1C1C"/>
</svg>
