<svg width="50" height="50" viewBox="0 0 50 50" fill="none" xmlns="http://www.w3.org/2000/svg">
<path d="M47.5 36.25V13.75C47.5 11.675 45.825 10 43.75 10H8.72498C6.64998 10 4.97498 11.675 4.97498 13.75V36.25C4.97498 38.325 6.64998 40 8.72498 40H43.75C45.825 40 47.5 38.325 47.5 36.25ZM44.225 13.475C45.05 14.3 44.6 15.15 44.15 15.575L34 24.875L43.75 35.025C44.05 35.375 44.25 35.925 43.9 36.3C43.575 36.7 42.825 36.675 42.5 36.425L31.575 27.1L26.225 31.975L20.9 27.1L9.97498 36.425C9.64998 36.675 8.89998 36.7 8.57498 36.3C8.22498 35.925 8.42498 35.375 8.72498 35.025L18.475 24.875L8.32498 15.575C7.87498 15.15 7.42498 14.3 8.24998 13.475C9.07498 12.65 9.92498 13.05 10.625 13.65L26.225 26.25L41.85 13.65C42.55 13.05 43.4 12.65 44.225 13.475V13.475Z" fill="black"/>
</svg>
