<svg width="50" height="50" viewBox="0 0 50 50" fill="none" xmlns="http://www.w3.org/2000/svg">
<path d="M43.75 40.625H6.25V23.9583L25 6.25L43.75 23.9583V40.625Z" fill="#E8EAF6"/>
<path d="M40.625 21.875L35.4167 16.6667V9.375H40.625V21.875Z" fill="#C5CAE9"/>
<path d="M6.25 40.625H43.75V45.8333H6.25V40.625Z" fill="#C5CAE9"/>
<path d="M25 4.47917L4.16669 23.8542L6.25002 26.1458L25 8.75L43.75 26.1458L45.8334 23.8542L25 4.47917Z" fill="#B71C1C"/>
<path d="M18.75 29.1667H31.25V45.8333H18.75V29.1667Z" fill="#D84315"/>
<path d="M21.875 17.7083H28.125V23.9583H21.875V17.7083Z" fill="#01579B"/>
<path d="M28.6458 36.9792C28.3333 36.9792 28.125 37.1875 28.125 37.5V39.5833C28.125 39.8958 28.3333 40.1042 28.6458 40.1042C28.9583 40.1042 29.1667 39.8958 29.1667 39.5833V37.5C29.1667 37.1875 28.9583 36.9792 28.6458 36.9792Z" fill="#FF8A65"/>
</svg>
