<svg width="50" height="50" viewBox="0 0 50 50" fill="none" xmlns="http://www.w3.org/2000/svg">
<path d="M25 27.0833C28.4518 27.0833 31.25 24.2851 31.25 20.8333C31.25 17.3815 28.4518 14.5833 25 14.5833C21.5482 14.5833 18.75 17.3815 18.75 20.8333C18.75 24.2851 21.5482 27.0833 25 27.0833Z" stroke="black" stroke-width="2" stroke-linecap="round" stroke-linejoin="round"/>
<path d="M25 4.16666C20.5797 4.16666 16.3405 5.92261 13.2149 9.04822C10.0893 12.1738 8.33331 16.4131 8.33331 20.8333C8.33331 24.775 9.17081 27.3542 11.4583 30.2083L25 45.8333L38.5416 30.2083C40.8291 27.3542 41.6666 24.775 41.6666 20.8333C41.6666 16.4131 39.9107 12.1738 36.7851 9.04822C33.6595 5.92261 29.4203 4.16666 25 4.16666V4.16666Z" stroke="black" stroke-width="2" stroke-linecap="round" stroke-linejoin="round"/>
</svg>
