<svg width="60" height="60" viewBox="0 0 60 60" fill="none" xmlns="http://www.w3.org/2000/svg">
<rect width="60" height="60" fill="white"/>
<path d="M39 30C39 32.387 38.0518 34.6761 36.3639 36.364C34.6761 38.0518 32.3869 39 30 39C27.613 39 25.3238 38.0518 23.636 36.364C21.9482 34.6761 21 32.387 21 30C21 29.487 21.054 28.986 21.147 28.5H18V40.491C18 41.325 18.675 42 19.509 42H40.494C40.8937 41.9992 41.2767 41.8399 41.5591 41.557C41.8414 41.2741 42 40.8907 42 40.491V28.5H38.853C38.946 28.986 39 29.487 39 30ZM30 36C30.7881 35.9998 31.5685 35.8444 32.2965 35.5426C33.0246 35.2408 33.6861 34.7986 34.2432 34.2411C34.8004 33.6837 35.2423 33.022 35.5437 32.2938C35.8451 31.5656 36.0002 30.7851 36 29.997C35.9998 29.2089 35.8444 28.4285 35.5426 27.7004C35.2408 26.9724 34.7986 26.3109 34.2411 25.7537C33.6837 25.1966 33.022 24.7547 32.2938 24.4533C31.5656 24.1518 30.7851 23.9968 29.997 23.997C28.4053 23.9974 26.8789 24.6301 25.7537 25.7559C24.6285 26.8816 23.9966 28.4083 23.997 30C23.9974 31.5917 24.6301 33.1181 25.7558 34.2433C26.8816 35.3685 28.4083 36.0004 30 36ZM37.2 23.7H40.797C41.036 23.7 41.2652 23.6053 41.4344 23.4366C41.6037 23.2679 41.6992 23.039 41.7 22.8V19.203C41.7 18.9635 41.6048 18.7338 41.4355 18.5645C41.2662 18.3951 41.0365 18.3 40.797 18.3H37.2C36.9605 18.3 36.7308 18.3951 36.5615 18.5645C36.3921 18.7338 36.297 18.9635 36.297 19.203V22.8C36.3 23.295 36.705 23.7 37.2 23.7ZM30 1.2C22.3617 1.2 15.0364 4.23428 9.63531 9.63533C4.23426 15.0364 1.19998 22.3618 1.19998 30C1.19998 37.6382 4.23426 44.9636 9.63531 50.3647C15.0364 55.7657 22.3617 58.8 30 58.8C33.7821 58.8 37.5271 58.0551 41.0213 56.6077C44.5154 55.1604 47.6903 53.039 50.3647 50.3647C53.039 47.6904 55.1604 44.5155 56.6077 41.0213C58.055 37.5271 58.8 33.7821 58.8 30C58.8 26.2179 58.055 22.4729 56.6077 18.9787C55.1604 15.4845 53.039 12.3097 50.3647 9.63533C47.6903 6.961 44.5154 4.83961 41.0213 3.39227C37.5271 1.94494 33.7821 1.2 30 1.2ZM45 41.667C45 43.5 43.5 45 41.667 45H18.333C16.5 45 15 43.5 15 41.667V18.333C15 16.5 16.5 15 18.333 15H41.667C43.5 15 45 16.5 45 18.333V41.667Z" fill="#B4269D"/>
</svg>
