<svg width="75" height="20" viewBox="0 0 75 20" fill="none" xmlns="http://www.w3.org/2000/svg">
<path d="M23.72 14.044C23.72 13.588 23.828 12.784 24.044 11.632C24.26 10.48 24.392 9.752 24.44 9.448L23.804 8.164C24.82 7.588 25.684 7.3 26.396 7.3C26.748 7.3 27.012 7.42 27.188 7.66C27.852 7.428 28.464 7.312 29.024 7.312C30.064 7.312 30.872 7.652 31.448 8.332C32.024 9.004 32.312 9.844 32.312 10.852C32.312 12.18 31.824 13.4 30.848 14.512C30.376 15.048 29.752 15.48 28.976 15.808C28.208 16.136 27.384 16.3 26.504 16.3C25.624 16.3 24.94 16.108 24.452 15.724C23.964 15.332 23.72 14.772 23.72 14.044ZM26.264 14.5C26.432 14.532 26.62 14.548 26.828 14.548C27.7 14.548 28.38 14.236 28.868 13.612C29.356 12.98 29.6 12.204 29.6 11.284C29.6 10.54 29.432 9.948 29.096 9.508C28.76 9.068 28.276 8.848 27.644 8.848C27.548 8.848 27.388 8.864 27.164 8.896C27.108 9.304 26.96 10.216 26.72 11.632C26.488 13.04 26.336 13.996 26.264 14.5ZM36.2884 16.3C35.1924 16.3 34.3444 16.016 33.7444 15.448C33.1524 14.88 32.8564 14.112 32.8564 13.144C32.8564 11.856 33.2964 10.812 34.1764 10.012C35.0644 9.204 36.1764 8.8 37.5124 8.8C38.2564 8.8 38.8204 8.968 39.2044 9.304C39.5884 9.632 39.7804 10.068 39.7804 10.612C39.7804 11.356 39.4164 11.976 38.6884 12.472C37.9684 12.96 36.8524 13.208 35.3404 13.216C35.3644 13.728 35.4804 14.132 35.6884 14.428C35.8964 14.716 36.1564 14.86 36.4684 14.86C36.7804 14.86 37.0484 14.756 37.2724 14.548C37.5044 14.34 37.6204 14 37.6204 13.528C38.7884 13.528 39.3724 13.804 39.3724 14.356C39.3724 14.828 39.0844 15.272 38.5084 15.688C37.9324 16.096 37.1924 16.3 36.2884 16.3ZM37.3084 10.204C36.9004 10.204 36.5244 10.408 36.1804 10.816C35.8444 11.224 35.6004 11.704 35.4484 12.256C36.2484 12.192 36.8484 12.012 37.2484 11.716C37.6564 11.412 37.8604 11.092 37.8604 10.756C37.8604 10.596 37.8084 10.464 37.7044 10.36C37.6084 10.256 37.4764 10.204 37.3084 10.204ZM44.1751 16.3C43.0791 16.3 42.2311 16.016 41.6311 15.448C41.0391 14.88 40.7431 14.112 40.7431 13.144C40.7431 11.856 41.1831 10.812 42.0631 10.012C42.9511 9.204 44.0631 8.8 45.3991 8.8C46.1431 8.8 46.7071 8.968 47.0911 9.304C47.4751 9.632 47.6671 10.068 47.6671 10.612C47.6671 11.356 47.3031 11.976 46.5751 12.472C45.8551 12.96 44.7391 13.208 43.2271 13.216C43.2511 13.728 43.3671 14.132 43.5751 14.428C43.7831 14.716 44.0431 14.86 44.3551 14.86C44.6671 14.86 44.9351 14.756 45.1591 14.548C45.3911 14.34 45.5071 14 45.5071 13.528C46.6751 13.528 47.2591 13.804 47.2591 14.356C47.2591 14.828 46.9711 15.272 46.3951 15.688C45.8191 16.096 45.0791 16.3 44.1751 16.3ZM45.1951 10.204C44.7871 10.204 44.4111 10.408 44.0671 10.816C43.7311 11.224 43.4871 11.704 43.3351 12.256C44.1351 12.192 44.7351 12.012 45.1351 11.716C45.5431 11.412 45.7471 11.092 45.7471 10.756C45.7471 10.596 45.6951 10.464 45.5911 10.36C45.4951 10.256 45.3631 10.204 45.1951 10.204ZM50.0818 18.388C49.5858 18.388 49.2378 18.264 49.0378 18.016C48.8458 17.776 48.7498 17.424 48.7498 16.96C48.7498 16.504 48.8458 15.58 49.0378 14.188C49.2378 12.796 49.4298 11.608 49.6138 10.624L48.9418 9.664C49.4378 9.376 49.8658 9.16 50.2258 9.016C50.5858 8.864 50.9418 8.788 51.2938 8.788C51.8698 8.788 52.1578 9.168 52.1578 9.928C52.1578 10.032 52.1418 10.244 52.1098 10.564L52.2298 10.624C52.4618 10.048 52.7978 9.6 53.2378 9.28C53.6778 8.952 54.1938 8.788 54.7858 8.788C55.3858 8.788 55.8618 9.06 56.2138 9.604C56.5658 10.14 56.7418 10.808 56.7418 11.608C56.7418 12.68 56.3658 13.656 55.6138 14.536C55.2458 14.968 54.7538 15.32 54.1378 15.592C53.5218 15.856 52.8338 15.988 52.0738 15.988C51.8418 15.988 51.5378 15.968 51.1618 15.928C51.1378 16.208 51.1258 16.468 51.1258 16.708C51.1258 17.22 51.2498 17.584 51.4978 17.8C51.0498 18.192 50.5778 18.388 50.0818 18.388ZM51.6538 13.42L51.3778 14.812C52.3458 14.788 53.1178 14.472 53.6938 13.864C54.2778 13.248 54.5698 12.576 54.5698 11.848C54.5698 11.472 54.4938 11.172 54.3418 10.948C54.1978 10.716 53.9858 10.6 53.7058 10.6C52.7138 10.6 52.0298 11.54 51.6538 13.42ZM60.7573 13.948C59.8533 13.948 59.1693 13.704 58.7053 13.216C58.2493 12.728 58.0213 12.128 58.0213 11.416C58.0213 10.704 58.2253 10.052 58.6333 9.46C59.0493 8.86 59.5893 8.4 60.2533 8.08C60.9253 7.76 61.6813 7.6 62.5213 7.6C63.3693 7.6 64.0693 7.852 64.6213 8.356C65.1733 8.86 65.4493 9.568 65.4493 10.48C65.4493 11.384 65.2773 12.284 64.9333 13.18C64.5973 14.068 64.1653 14.84 63.6373 15.496C63.1173 16.152 62.5333 16.684 61.8853 17.092C61.2373 17.508 60.6173 17.716 60.0253 17.716C59.0653 17.716 58.4733 17.316 58.2493 16.516C59.8093 16.084 61.0293 15.184 61.9093 13.816C61.5253 13.904 61.1413 13.948 60.7573 13.948ZM62.9293 10.54C62.9293 10.132 62.8533 9.788 62.7013 9.508C62.5493 9.228 62.3133 9.088 61.9933 9.088C61.6733 9.088 61.3773 9.276 61.1053 9.652C60.8333 10.02 60.6973 10.528 60.6973 11.176C60.6973 11.568 60.7693 11.896 60.9133 12.16C61.0653 12.424 61.3013 12.556 61.6213 12.556C61.9413 12.556 62.2373 12.376 62.5093 12.016C62.7893 11.648 62.9293 11.156 62.9293 10.54ZM67.8745 16C67.8745 15.336 68.1185 14.512 68.6065 13.528C69.1025 12.536 69.7625 11.512 70.5865 10.456C70.1945 10.48 69.8305 10.492 69.4945 10.492C68.6945 10.492 68.0705 10.304 67.6225 9.928C67.1825 9.544 66.9625 9.02 66.9625 8.356C66.9625 8.1 66.9785 7.848 67.0105 7.6C67.6345 7.808 68.4105 7.984 69.3385 8.128C70.2745 8.264 71.0225 8.332 71.5825 8.332C71.9105 7.772 72.3345 7.492 72.8545 7.492C73.1745 7.492 73.4225 7.588 73.5985 7.78C73.7825 7.972 73.8745 8.208 73.8745 8.488C73.8745 9.04 73.6025 9.48 73.0585 9.808C72.4985 10.896 71.9625 12.12 71.4505 13.48C70.9385 14.832 70.6825 15.876 70.6825 16.612C70.6825 16.852 70.7185 17.04 70.7905 17.176C70.3665 17.36 69.9385 17.452 69.5065 17.452C68.4185 17.452 67.8745 16.968 67.8745 16Z" fill="url(#paint0_linear)"/>
<path d="M9.4146 18.668L1.01201 18.7613L0.698853 0.763985L23.1058 0.515292L23.272 10.0702" stroke="url(#paint1_linear)" stroke-linecap="round"/>
<path d="M20.3333 14.21H20.2343C20.485 14.21 20.688 13.998 20.688 13.7365V2.47352C20.688 2.2117 20.485 2 20.2343 2H3.77498C3.52432 2 3.32098 2.2117 3.32098 2.47352V13.7368C3.32098 13.9983 3.52432 14.2103 3.77498 14.2103H3.66665L1.99998 15.8644C1.99998 16.432 2.44932 17 2.99898 17H21.0013C21.5197 17 22 16.4334 22 15.8641L20.3333 14.21ZM12.0046 2.2642C12.0394 2.26291 12.0741 2.26879 12.1066 2.28149C12.1391 2.2942 12.1688 2.31347 12.1938 2.33816C12.2189 2.36285 12.2388 2.39246 12.2524 2.4252C12.266 2.45794 12.2731 2.49316 12.2731 2.52874C12.2731 2.56433 12.2661 2.59955 12.2526 2.63232C12.239 2.66508 12.2191 2.6947 12.1941 2.71943C12.169 2.74415 12.1394 2.76346 12.1069 2.77621C12.0744 2.78896 12.0398 2.79489 12.005 2.79364C11.9379 2.79122 11.8744 2.76229 11.8278 2.71295C11.7812 2.66361 11.7551 2.59769 11.7551 2.52909C11.7551 2.46048 11.781 2.39453 11.8276 2.34512C11.8741 2.29572 11.9376 2.26671 12.0046 2.2642V2.2642ZM3.80165 14.5509H20.198L21.1773 15.5232H13.8473L13.7147 15.3432H10.2947L10.1616 15.5232H2.82198L3.80165 14.5509ZM13.4387 16.6039H10.5606C10.462 16.6039 10.1993 16.6039 10.1993 16.2602H13.8003C13.8003 16.6039 13.5323 16.6039 13.4387 16.6039Z" fill="url(#paint2_linear)"/>
<defs>
<linearGradient id="paint0_linear" x1="48" y1="6.5" x2="49" y2="16" gradientUnits="userSpaceOnUse">
<stop offset="0.54375" stop-color="#0017E9"/>
<stop offset="0.934375" stop-color="#2A2954" stop-opacity="0.82"/>
</linearGradient>
<linearGradient id="paint1_linear" x1="0.698853" y1="0.763985" x2="18.6255" y2="22.4711" gradientUnits="userSpaceOnUse">
<stop offset="0.0570316" stop-color="#1E34F7"/>
<stop offset="0.266956" stop-color="#366FDE"/>
<stop offset="0.621828" stop-color="#16C0E6"/>
<stop offset="0.948378" stop-color="#1E34F6"/>
</linearGradient>
<linearGradient id="paint2_linear" x1="12" y1="2" x2="12" y2="17" gradientUnits="userSpaceOnUse">
<stop stop-color="#0711FF"/>
<stop offset="1" stop-color="#2612A3" stop-opacity="0.87"/>
</linearGradient>
</defs>
</svg>
