<svg width="50" height="50" viewBox="0 0 50 50" fill="none" xmlns="http://www.w3.org/2000/svg">
<path d="M27.0833 16.6667C28.7409 16.6667 30.3306 17.3251 31.5028 18.4972C32.6749 19.6694 33.3333 21.2591 33.3333 22.9167C33.3333 23.4692 33.5528 23.9991 33.9435 24.3898C34.3342 24.7805 34.8641 25 35.4167 25C35.9692 25 36.4991 24.7805 36.8898 24.3898C37.2805 23.9991 37.5 23.4692 37.5 22.9167C37.5 20.154 36.4025 17.5045 34.449 15.551C32.4955 13.5975 29.846 12.5 27.0833 12.5C26.5308 12.5 26.0009 12.7195 25.6102 13.1102C25.2195 13.5009 25 14.0308 25 14.5833C25 15.1359 25.2195 15.6658 25.6102 16.0565C26.0009 16.4472 26.5308 16.6667 27.0833 16.6667V16.6667Z" fill="black"/>
<path d="M27.0833 8.33333C30.9511 8.33333 34.6604 9.86979 37.3953 12.6047C40.1302 15.3396 41.6667 19.0489 41.6667 22.9167C41.6667 23.4692 41.8862 23.9991 42.2769 24.3898C42.6676 24.7805 43.1975 25 43.75 25C44.3025 25 44.8324 24.7805 45.2231 24.3898C45.6138 23.9991 45.8333 23.4692 45.8333 22.9167C45.8333 17.9439 43.8579 13.1747 40.3416 9.65842C36.8253 6.14211 32.0561 4.16667 27.0833 4.16667C26.5308 4.16667 26.0009 4.38616 25.6102 4.77686C25.2195 5.16756 25 5.69747 25 6.25C25 6.80254 25.2195 7.33244 25.6102 7.72314C26.0009 8.11384 26.5308 8.33333 27.0833 8.33333V8.33333ZM45.3125 33.1458C45.1979 32.8114 45.0001 32.5116 44.7377 32.2747C44.4753 32.0378 44.1569 31.8716 43.8125 31.7917L31.3125 28.9375C30.9732 28.8606 30.62 28.8698 30.2852 28.9645C29.9505 29.0591 29.6447 29.236 29.3958 29.4792C29.1042 29.75 29.0833 29.7708 27.7292 32.3542C23.2358 30.2837 19.6354 26.6685 17.5833 22.1667C20.2292 20.8333 20.25 20.8333 20.5208 20.5208C20.764 20.272 20.9409 19.9662 21.0356 19.6314C21.1302 19.2966 21.1394 18.9435 21.0625 18.6042L18.2083 6.25C18.1284 5.90562 17.9622 5.58723 17.7253 5.32482C17.4884 5.0624 17.1886 4.86459 16.8542 4.75C16.3676 4.57623 15.8652 4.45063 15.3542 4.375C14.8276 4.25291 14.2903 4.18312 13.75 4.16667C11.2083 4.16667 8.77079 5.17634 6.97357 6.97356C5.17634 8.77079 4.16667 11.2083 4.16667 13.75C4.1777 22.2556 7.56144 30.4098 13.5758 36.4242C19.5902 42.4386 27.7444 45.8223 36.25 45.8333C37.5085 45.8333 38.7547 45.5855 39.9174 45.1038C41.0801 44.6222 42.1365 43.9163 43.0264 43.0264C43.9163 42.1365 44.6222 41.0801 45.1038 39.9174C45.5855 38.7547 45.8333 37.5085 45.8333 36.25C45.834 35.7197 45.7922 35.1903 45.7083 34.6667C45.6208 34.1492 45.4883 33.6403 45.3125 33.1458V33.1458Z" fill="black"/>
</svg>
