<svg width="60" height="60" viewBox="0 0 60 60" fill="none" xmlns="http://www.w3.org/2000/svg">
<path d="M30 0.9375C13.4274 0.9375 0 13.9453 0 30C0 46.0547 13.4274 59.0625 30 59.0625C46.5726 59.0625 60 46.0547 60 30C60 13.9453 46.5726 0.9375 30 0.9375ZM44.7339 20.8477L39.8105 43.3242C39.4476 44.918 38.4677 45.3047 37.1008 44.5547L29.6008 39.1992L25.9839 42.5742C25.5847 42.9609 25.246 43.2891 24.4718 43.2891L25.004 35.8945L38.9032 23.7305C39.5081 23.2148 38.7702 22.9219 37.9718 23.4375L20.7944 33.9141L13.3911 31.6758C11.7823 31.1836 11.746 30.1172 13.7298 29.3672L42.6532 18.5625C43.996 18.0937 45.1694 18.8789 44.7339 20.8477V20.8477Z" fill="#26C97B"/>
</svg>
