<svg width="60" height="60" viewBox="0 0 60 60" fill="none" xmlns="http://www.w3.org/2000/svg">
<path d="M30 1.19998C14.094 1.19998 1.2 14.094 1.2 30C1.2 45.906 14.094 58.8 30 58.8C45.906 58.8 58.8 45.906 58.8 30C58.8 14.094 45.906 1.19998 30 1.19998ZM41.715 24.792C41.727 25.038 41.73 25.284 41.73 25.524C41.73 33.024 36.027 41.667 25.593 41.667C22.5099 41.6721 19.4909 40.7866 16.899 39.117C17.34 39.171 17.793 39.192 18.252 39.192C20.91 39.192 23.355 38.289 25.296 36.765C24.1132 36.7418 22.967 36.3501 22.0173 35.6445C21.0677 34.939 20.3618 33.9548 19.998 32.829C20.8475 32.9905 21.7226 32.9567 22.557 32.73C21.2732 32.4704 20.1186 31.7747 19.2891 30.761C18.4597 29.7472 18.0063 28.4778 18.006 27.168V27.099C18.771 27.522 19.647 27.78 20.577 27.81C19.3734 27.0088 18.5214 25.778 18.1951 24.3694C17.8689 22.9608 18.0932 21.4807 18.822 20.232C20.2469 21.984 22.0238 23.4172 24.0377 24.4389C26.0516 25.4606 28.2577 26.048 30.513 26.163C30.2263 24.9459 30.3497 23.6682 30.864 22.5285C31.3784 21.3888 32.2549 20.451 33.3572 19.8608C34.4596 19.2706 35.726 19.0612 36.9597 19.265C38.1933 19.4688 39.3251 20.0746 40.179 20.988C41.4485 20.7368 42.6659 20.2711 43.779 19.611C43.3559 20.9254 42.47 22.0415 41.286 22.752C42.4105 22.6165 43.5086 22.3142 44.544 21.855C43.7835 22.9947 42.8254 23.9893 41.715 24.792V24.792Z" fill="#37B4FA"/>
</svg>
